<svg xmlns="http://www.w3.org/2000/svg" viewBox="0 0 128 128" role="img" aria-labelledby="title desc">
  <title id="title">Chise Chronicle logo</title>
  <desc id="desc">A circular monogram with the letters C and C.</desc>
  <defs>
    <linearGradient id="bg" x1="0%" y1="0%" x2="100%" y2="100%">
      <stop offset="0%" stop-color="#f5e8b7" />
      <stop offset="100%" stop-color="#cf9b45" />
    </linearGradient>
  </defs>
  <circle cx="64" cy="64" r="58" fill="url(#bg)" />
  <circle cx="64" cy="64" r="49" fill="#101622" />
  <path d="M81 42c-4-5-10-8-17-8-16 0-28 12-28 30 0 18 12 30 28 30 7 0 13-2 18-7v-11c-4 5-10 8-17 8-11 0-19-8-19-20 0-12 8-20 19-20 7 0 12 3 16 7z" fill="#f5e8b7" />
  <path d="M89 54c-3-3-7-5-12-5-10 0-18 8-18 19 0 11 8 19 18 19 5 0 9-2 12-5v-7c-2 2-6 4-10 4-6 0-10-4-10-11 0-6 4-11 10-11 4 0 7 2 10 5z" fill="#cf9b45" />
</svg>
